<svg viewBox="0 0 200 187" xmlns="http://www.w3.org/2000/svg" xmlns:xlink="http://www.w3.org/1999/xlink">
    <mask id="mask0" mask-type="alpha">
        <path d="M190.312 36.4879C206.582 62.1187 201.309 102.826 182.328 134.186C163.346 165.547 
        130.807 187.559 100.226 186.353C69.6454 185.297 41.0228 161.023 21.7403 129.362C2.45775 
        97.8511 -7.48481 59.1033 6.67581 34.5279C20.9871 10.1032 59.7028 -0.149132 97.9666 
        0.00163737C136.23 0.303176 174.193 10.857 190.312 36.4879Z"/>
    </mask>
    <g mask="url(#mask0)">
        <path d="M190.312 36.4879C206.582 62.1187 201.309 102.826 182.328 134.186C163.346 
        165.547 130.807 187.559 100.226 186.353C69.6454 185.297 41.0228 161.023 21.7403 
        129.362C2.45775 97.8511 -7.48481 59.1033 6.67581 34.5279C20.9871 10.1032 59.7028 
        -0.149132 97.9666 0.00163737C136.23 0.303176 174.193 10.857 190.312 36.4879Z"/>
        <image href=""/>
    </g>
</svg>


<svg viewBox="0 0 200 200" xmlns="http://www.w3.org/2000/svg">
  <path fill="#FF0066" d="M39.1,-44.4C52.9,-35.1,67.6,-24.8,72.4,-10.8C77.3,3.3,72.2,21,63.6,37.3C54.9,53.6,42.6,68.3,26.5,75.3C10.4,82.2,-9.4,81.3,-19.4,70.4C-29.5,59.4,-29.6,38.3,-39.8,22.2C-49.9,6.2,-70,-4.9,-74.8,-19.4C-79.6,-33.9,-69.1,-51.8,-54.1,-60.9C-39,-69.9,-19.5,-70.1,-3.4,-66C12.7,-62,25.4,-53.7,39.1,-44.4Z" transform="translate(100 100)" />
</svg>